<svg width="48" height="48" viewBox="0 0 48 48" fill="none" xmlns="http://www.w3.org/2000/svg">
<g clip-path="url(#clip0_3_40)">
<mask id="mask0_3_40" style="mask-type:luminance" maskUnits="userSpaceOnUse" x="0" y="0" width="48" height="48">
<path d="M48 0H0V48H48V0Z" fill="white"/>
</mask>
<g mask="url(#mask0_3_40)">
<path d="M37.5652 0C43.3282 2.01681e-07 48 4.67181 48 10.4348V37.5652C48 43.3282 43.3282 48 37.5652 48H10.4348C4.67181 48 2.01694e-07 43.3282 0 37.5652V10.4348C2.01694e-07 4.67181 4.67181 2.01681e-07 10.4348 0H37.5652ZM25.391 8.30452C24.4118 8.30457 23.5063 8.65863 22.8465 9.39741C22.2401 10.0764 21.9908 10.9132 21.8942 11.6352C21.7035 13.0615 22.016 14.7347 22.4654 16.1724C22.4662 16.1751 22.4675 16.1778 22.4684 16.1805C23.1427 18.3014 23.1474 20.4757 22.5866 22.4924C22.0267 22.3119 21.4501 22.1814 20.8624 22.099C17.8457 21.6764 14.6532 22.5278 11.9531 24.0947C11.081 24.601 10.7842 25.7181 11.2902 26.5903C11.7965 27.4626 12.9141 27.7594 13.7863 27.2533C15.9557 25.9942 18.3289 25.4322 20.3554 25.7161C20.5835 25.748 20.8086 25.7908 21.0301 25.8449C19.4689 28.1493 17.0404 29.9688 13.9774 30.8254L13.9723 30.827C13.6402 30.9209 13.3229 31.0049 13.0134 31.0863C12.7097 31.1661 12.4017 31.2463 12.1146 31.3263C11.5569 31.4817 10.9454 31.671 10.3981 31.9509C9.82383 32.2446 9.23546 32.6799 8.81708 33.3694C8.4025 34.0528 8.2607 34.8108 8.2607 35.5654C8.26075 36.8128 8.76981 37.8418 9.61805 38.5781C10.3945 39.2522 11.3665 39.6078 12.2487 39.8157C13.9969 40.2277 16.1472 40.2177 17.7529 40.2177C24.7658 40.2177 29.974 35.8857 32.4905 29.9282C32.7836 30.052 33.0677 30.2006 33.3393 30.3729C34.192 30.9142 34.8956 31.6728 35.3784 32.5771C35.8613 33.4816 36.1064 34.5002 36.0877 35.5323C36.0694 36.5405 36.8718 37.3726 37.8801 37.391C38.8883 37.4092 39.7204 36.6067 39.7388 35.5985C39.7688 33.9463 39.3772 32.3127 38.6 30.857C37.8228 29.4013 36.6853 28.1716 35.2964 27.2899C34.7621 26.9508 34.1975 26.6682 33.6119 26.4441C33.9815 24.8302 34.1739 23.1467 34.1739 21.4351C34.1739 19.3585 33.476 16.257 32.1863 13.6488C30.9631 11.1751 28.7682 8.30452 25.391 8.30452ZM24.1401 27.7602C24.5124 28.1969 24.8503 28.7093 25.1444 29.3066C25.3612 29.747 25.7465 30.0817 26.2128 30.2349C26.679 30.388 27.1875 30.3471 27.6231 30.1213C27.9267 29.9638 28.2421 29.8349 28.5652 29.7345C26.3691 33.8827 22.4864 36.5656 17.7529 36.5656C16.0195 36.5656 14.3362 36.5554 13.0863 36.2609C12.4697 36.1155 12.1513 35.9408 12.0122 35.8202C11.9449 35.7617 11.9129 35.7307 11.9129 35.5654C11.9129 35.404 11.9289 35.315 11.9394 35.2745C11.96 35.2593 11.9977 35.2348 12.0606 35.2026C12.2593 35.101 12.569 34.991 13.0949 34.8445C13.3496 34.7734 13.6247 34.7019 13.9427 34.6182C14.2535 34.5365 14.5961 34.4452 14.9608 34.3421L14.9613 34.3425C18.9012 33.2407 22.0932 30.8381 24.1401 27.7602ZM25.5418 11.9633C26.6097 12.0515 27.829 13.0759 28.9127 15.2675C29.9812 17.4282 30.5217 19.9792 30.5217 21.4351C30.5217 22.9705 30.3472 24.4436 30.0194 25.8276C29.1843 25.8494 28.3577 25.9829 27.5605 26.223C27.0504 25.4857 26.4748 24.8512 25.8485 24.3139C26.8018 21.5488 26.9421 18.494 26.0666 15.4631L25.9489 15.0739C25.5656 13.8448 25.4271 12.7726 25.5142 12.1197C25.5226 12.0573 25.5323 12.0054 25.5418 11.9633Z" fill="white"/>
</g>
</g>
<defs>
<clipPath id="clip0_3_40">
<rect width="48" height="48" fill="white"/>
</clipPath>
</defs>
</svg>